<svg version="1.1" xmlns="http://www.w3.org/2000/svg" xmlns:xlink="http://www.w3.org/1999/xlink" width="24" height="24" viewBox="0,0,256,256"><g fill="#ffffff" fill-rule="nonzero" stroke="none" stroke-width="1" stroke-linecap="butt" stroke-linejoin="miter" stroke-miterlimit="10" stroke-dasharray="" stroke-dashoffset="0" font-family="none" font-weight="none" font-size="none" text-anchor="none" style="mix-blend-mode: normal"><g transform="translate(-2.61242,-0.9623) scale(11.63636,12.8)"><path d="M21.70538,0.7178c-0.18941,-0.1269 -0.42092,-0.14805 -0.63138,-0.06346l-6.48215,2.60106l-6.48215,-2.60105c-0.16836,-0.07401 -0.33673,-0.07401 -0.5051,0l-6.7347,2.70677c-0.25255,0.09516 -0.42092,0.34892 -0.42092,0.62383v14.88723c0,0.22204 0.11575,0.4335 0.29464,0.56039c0.11576,0.07401 0.24203,0.1163 0.37883,0.1163c0.05612,0 0.11224,-0.0047 0.16837,-0.02036l6.56633,-2.63354l6.48215,2.60104c0.16837,0.07401 0.33674,0.07401 0.5051,0l6.7347,-2.70677c0.25256,-0.09516 0.42093,-0.34892 0.42093,-0.62383v-14.88723c0,-0.22204 -0.11576,-0.4335 -0.29465,-0.56039zM8.19388,2.14518l6.06124,2.43186v13.42812l-6.06123,-2.43186v-13.42811zM1.79593,4.4396l5.7245,-2.29441v13.42811l-5.7245,2.2944zM20.6531,15.71076l-5.7245,2.29441v-13.42812l5.7245,-2.2944z"></path></g></g></svg>