<svg xmlns="http://www.w3.org/2000/svg" width="24" height="24" viewBox="0 0 24 24"><path fill="currentColor" stroke="currentColor" stroke-width=".5" d="M12 3a8.821 8.821 0 0 0-3.507.703 9.031 9.031 0 0 0-2.865 1.925 9.031 9.031 0 0 0-1.925 2.865A8.821 8.821 0 0 0 3 12a8.82 8.82 0 0 0 .703 3.507 9.031 9.031 0 0 0 1.925 2.865 9.031 9.031 0 0 0 2.865 1.925A8.821 8.821 0 0 0 12 21a8.821 8.821 0 0 0 3.507-.703 9.031 9.031 0 0 0 2.865-1.925 9.031 9.031 0 0 0 1.925-2.865A8.821 8.821 0 0 0 21 12a8.821 8.821 0 0 0-.703-3.507 9.031 9.031 0 0 0-1.925-2.865 9.031 9.031 0 0 0-2.865-1.925A8.821 8.821 0 0 0 12 3zm0 17a7.725 7.725 0 0 1-3.116-.633 8.074 8.074 0 0 1-2.536-1.722 8.25 8.25 0 0 1-1.714-2.541A7.701 7.701 0 0 1 4 11.99a7.7 7.7 0 0 1 .634-3.113 8.14 8.14 0 0 1 1.714-2.532 8.15 8.15 0 0 1 2.536-1.713A7.725 7.725 0 0 1 12 4c1.107 0 2.146.211 3.116.633a8.15 8.15 0 0 1 2.536 1.713 8.14 8.14 0 0 1 1.714 2.532A7.7 7.7 0 0 1 20 11.991a7.701 7.701 0 0 1-.634 3.113 8.25 8.25 0 0 1-1.714 2.541 8.074 8.074 0 0 1-2.536 1.722A7.725 7.725 0 0 1 12 20zm.143-7.78l2.696 2.77c.107.11.161.249.161.414a.568.568 0 0 1-.16.413.512.512 0 0 1-.402.183.512.512 0 0 1-.402-.183l-2.84-2.9-.002-.016h0l-.015-.02h0a.454.454 0 0 1-.134-.184.629.629 0 0 1-.045-.238V6.587c0-.159.057-.296.17-.413a.542.542 0 0 1 .4-.174.54.54 0 0 1 .402.174c.113.117.17.254.17.413v5.633z"></path></svg>