<svg viewBox="0 0 307 155" xmlns="http://www.w3.org/2000/svg" role="presentation">
  <path fill="white" d="M10.63.206v1.198c0 78.702 64.034 142.73 142.739 142.73 78.709 0 142.737-64.028 142.737-142.73V.206h10.125v1.198c0 84.285-68.574 152.87-152.862 152.87C69.084 154.273.51 85.688.51 1.403V.206h10.12zm35.585 0v1.198c0 59.09 48.069 107.15 107.154 107.15 59.084 0 107.157-48.06 107.157-107.15V.206h10.124v1.198c0 64.664-52.614 117.278-117.281 117.278S36.09 66.068 36.09 1.404V.206h10.124z"></path>
</svg>