<svg width="24" height="24" viewBox="0 0 22 20" xmlns="http://www.w3.org/2000/svg">
  <path fill="currentColor" d="M21.70538.7178C21.51597.5909 21.28446.56975 21.074.65434L14.59185 3.2554 8.1097.65435c-.16836-.07401-.33673-.07401-.5051 0L.8699 3.36112c-.25255.09516-.42092.34892-.42092.62383v14.88723c0 .22204.11575.4335.29464.56039.11576.07401.24203.1163.37883.1163.05612 0 .11224-.0047.16837-.02036l6.56633-2.63354 6.48215 2.60104c.16837.07401.33674.07401.5051 0l6.7347-2.70677c.25256-.09516.42093-.34892.42093-.62383V1.27818c0-.22204-.11576-.4335-.29465-.56039zM8.19388 2.14518l6.06124 2.43186v13.42812l-6.06123-2.43186V2.14519zM1.79593 4.4396l5.7245-2.29441V15.5733l-5.7245 2.2944V4.4396zm18.85717 11.27116l-5.7245 2.29441V4.57705l5.7245-2.2944v13.42811z"></path>
</svg>