<svg viewBox="0 0 1000 94" xmlns="http://www.w3.org/2000/svg">
  <path fill="currentColor" d="M510.777 2.2c4.138 0 8.185.862 12.04 2.558V3.455h3.686v3.243c4.204 2.475 7.951 6.444 10.512 11.095V3.455h3.69v60.082c0 16.525-13.426 29.972-29.928 29.972-9.794 0-19.079-4.928-24.836-13.183l-.63-.91 3.219-1.843.527.761c4.997 7.191 13.116 11.484 21.72 11.484 14.714 0 26.238-11.543 26.238-26.28V46.53c-2.577 4.702-6.396 8.717-10.717 11.217l.04 6.621c0 .052-.117 1.718-.18 2.04-1.447 7.463-7.918 12.882-15.38 12.882-4.755 0-9.416-2.253-12.474-6.02l-.753-.92 3.236-1.85.54.655c2.229 2.743 5.85 4.443 9.45 4.443 5.15 0 9.888-3.671 11.523-8.93.139-.448.206-.956.206-1.56v-5.367c-3.86 1.572-7.9 2.402-11.729 2.402-16.558 0-30.029-13.448-30.029-29.972S494.22 2.2 510.778 2.2zM81.081 1.65c16.559 0 30.03 13.525 30.03 30.144 0 16.62-13.471 30.144-30.03 30.144-4.136 0-8.183-.867-12.043-2.577v22.597h-3.686v-24.55c-4.218-2.496-7.964-6.474-10.51-11.118v35.668h-3.687V2.912h3.687v14.413c2.551-4.729 6.298-8.753 10.51-11.252V2.912h3.686v1.31c3.857-1.705 7.904-2.572 12.043-2.572zM19.618 16.502c1.962 0 3.867 1.287 4.857 3.272l.473.958-3.305 1.417-.424-.847c-.349-.698-.947-1.114-1.6-1.114-.895 0-1.596.61-1.596 1.392 0 .825.717 1.495 1.595 1.495 10.717 0 19.436 8.747 19.436 19.492 0 10.8-8.72 19.59-19.436 19.59-7.758 0-14.662-4.59-17.589-11.687l-.379-.92 3.3-1.426.392.94c2.437 5.804 7.908 9.406 14.276 9.406 8.837 0 15.76-6.983 15.76-15.903 0-8.86-6.923-15.802-15.76-15.802-2.808 0-5.273-2.423-5.273-5.185 0-2.798 2.367-5.078 5.273-5.078zM152.143 2.2c16.501 0 29.925 13.45 29.925 29.978 0 16.527-13.424 29.978-29.925 29.978-16.56 0-30.03-13.451-30.03-29.978 0-16.528 13.47-29.978 30.03-29.978zm509.434 2.2v29.563c0 12.542 10.156 22.744 22.638 22.744 2.89 0 5.805-.57 8.448-1.653v-12.46c-2.294 2.226-5.37 3.53-8.448 3.53-6.535 0-12.056-5.569-12.056-12.16V4.4h3.715v29.563c0 4.66 3.742 8.448 8.34 8.448 4.58 0 8.449-3.722 8.449-8.133V4.4h3.713v48.826c3.672-2.338 10.583-8.203 10.583-19.263V4.4h3.712v57.756h-3.712V47.48c-2.464 4.146-6.089 7.548-10.583 9.917v4.76h-3.713v-3.155c-2.652.94-5.49 1.418-8.448 1.418-14.529 0-26.35-11.87-26.35-26.456V4.4h3.712zm189.219 0v29.563c0 12.542 10.156 22.744 22.637 22.744 2.892 0 5.806-.57 8.446-1.653v-12.46c-2.292 2.226-5.368 3.53-8.446 3.53-6.536 0-12.055-5.569-12.055-12.16V4.4h3.713v29.563c0 4.66 3.743 8.448 8.342 8.448 4.578 0 8.446-3.722 8.446-8.133V4.4h3.713v48.826c3.675-2.338 10.587-8.206 10.587-19.263V4.4h3.711v57.756h-3.711v-14.68c-2.467 4.149-6.092 7.553-10.587 9.92v4.76h-3.713v-3.155c-2.65.94-5.49 1.418-8.446 1.418-14.53 0-26.348-11.87-26.348-26.456V4.4h3.711zM223.099 2.2c16.502 0 29.926 13.45 29.926 29.978 0 16.527-13.424 29.978-29.926 29.978-16.56 0-30.03-13.451-30.03-29.978C193.07 15.65 206.54 2.2 223.1 2.2zm219.975 0c12.534 0 23.804 7.746 28.046 19.274l.277.751-32.436 21.36c1.307.434 2.687.653 4.113.653 3.638 0 7.125-1.62 9.33-4.335l.643-.79 2.794 2.333-.621.776c-2.87 3.574-7.411 5.708-12.146 5.708-2.847 0-5.503-.692-7.702-2.006l-9.512 6.248c4.775 4.064 10.864 6.292 17.214 6.292 7.977 0 15.444-3.56 20.483-9.775l.643-.79 2.794 2.333-.624.774c-5.716 7.086-14.207 11.15-23.296 11.15-16.534 0-29.983-13.45-29.983-29.978 0-16.526 13.449-29.978 29.983-29.978zM745.69 15.952c1.961 0 3.867 1.288 4.856 3.272l.474.958-3.305 1.417-.424-.847c-.35-.697-.948-1.114-1.601-1.114-.895 0-1.596.61-1.596 1.392 0 .826.717 1.496 1.596 1.496 10.716 0 19.436 8.746 19.436 19.491 0 10.8-8.72 19.59-19.436 19.59-7.759 0-14.663-4.59-17.59-11.687l-.378-.92 3.298-1.427.394.942c2.437 5.803 7.907 9.405 14.276 9.405 8.837 0 15.76-6.983 15.76-15.903 0-8.86-6.923-15.802-15.76-15.802-2.809 0-5.273-2.424-5.273-5.185 0-2.798 2.365-5.078 5.273-5.078zM806.658 1.65c12.535 0 23.805 7.747 28.044 19.275l.281.759-.672.438-31.766 20.915c1.314.438 2.693.657 4.113.657 3.64 0 7.126-1.62 9.33-4.34l.643-.788 2.795 2.333-.622.775c-2.872 3.578-7.411 5.713-12.146 5.713-2.846 0-5.501-.696-7.702-2.01l-9.511 6.247c4.775 4.062 10.862 6.29 17.213 6.29 7.982 0 15.448-3.561 20.483-9.773l.644-.79 2.794 2.333-.625.776c-5.71 7.082-14.202 11.146-23.296 11.146-16.53 0-29.98-13.448-29.98-29.976s13.45-29.98 29.98-29.98zM310.418 3.3l.112.315 18.44 50.933 5.518-15.222L321.454 3.3h4.037l.113.315 10.904 30.113L347.523 3.3h3.303l5.885 16.236L362.598 3.3h3.3l.113.315 10.904 30.113L387.932 3.3h4.035l-.23.637-12.805 35.285 5.525 15.32L403.007 3.3h4.034l-.231.637-20.709 57.12h-3.298l-5.888-16.243-5.887 16.242h-3.302l-.112-.313-10.903-30.018-11.017 30.331h-3.299l-5.887-16.242-5.89 16.242h-3.296l-.113-.313L306.38 3.3h4.036zm-42.161 0v15.365c2.34-4.355 5.578-7.613 10.496-10.619V3.3h3.683v2.78c3.834-1.685 7.975-2.573 12.022-2.573h3.672v3.72h-3.672c-4.044 0-8.3 1.048-12.022 2.96v13.281c2.947-3.519 7.432-5.658 12.022-5.658h3.672v3.71h-3.672c-6.742 0-12.022 5.328-12.022 12.13v27.407h-3.683v-48.65c-4.23 3.05-10.496 9.544-10.496 21.243v27.407h-3.68V3.3h3.68zM567.507 0v13.38c2.53-4.086 6.145-7.313 10.551-9.403V0h3.696l.007 2.516c.442-.07 1-.156 1.081-.174 1.94-.411 3.76-.613 5.554-.613a24.79 24.79 0 0 1 15.606 5.542c4.31-3.576 9.804-5.542 15.521-5.542 13.56 0 24.591 11.02 24.591 24.57v34.207h-3.702V26.298c0-11.508-9.372-20.873-20.889-20.873-4.758 0-9.318 1.567-12.895 4.418 2.533 2.833 4.274 5.96 5.3 9.525 1.976-2.141 4.754-3.398 7.595-3.398 5.603 0 10.337 4.73 10.337 10.328v34.208h-3.7V26.298c0-3.659-2.977-6.631-6.637-6.631-3.166 0-6.534 2.322-6.534 6.631v34.208h-3.701V26.298c0-5.071-2.014-10.362-5.278-13.945-3.452 3.721-5.273 8.532-5.273 13.945v34.208h-3.701V26.298c0-3.659-2.98-6.631-6.64-6.631-3.598 0-6.638 2.942-6.638 6.422v34.417h-3.7V8.142c-6.434 3.546-10.552 10.585-10.552 18.156v34.208h-3.7V0h3.7zM923.39 0v13.384c2.534-4.09 6.149-7.317 10.554-9.407V0h3.047l.018 2.809c2.317-.725 4.703-1.08 7.273-1.08a24.8 24.8 0 0 1 15.607 5.542c4.309-3.576 9.802-5.542 15.52-5.542 13.558 0 24.591 11.02 24.591 24.57v34.207h-3.703V26.298c0-11.508-9.37-20.873-20.888-20.873-4.76 0-9.318 1.567-12.894 4.418 2.534 2.838 4.274 5.962 5.3 9.525 1.976-2.141 4.754-3.398 7.594-3.398 5.603 0 10.338 4.73 10.338 10.328v34.208h-3.702V26.298c0-3.659-2.977-6.631-6.636-6.631-3.168 0-6.533 2.322-6.533 6.631v34.208h-3.701V26.298c0-5.068-2.013-10.362-5.28-13.945-3.451 3.724-5.272 8.532-5.272 13.945v34.208h-3.703V26.298c0-3.659-2.977-6.631-6.638-6.631-3.597 0-6.637 2.942-6.637 6.422v34.417h-3.701V8.142c-6.435 3.546-10.554 10.585-10.554 18.156v34.208h-3.698V0h3.698zM223.1 5.892c-14.773 0-26.345 11.545-26.345 26.286 0 14.493 11.819 26.286 26.344 26.286 14.47 0 26.24-11.793 26.24-26.286 0-14.494-11.77-26.286-26.24-26.286zm-70.957 0c-14.772 0-26.342 11.545-26.342 26.286 0 14.493 11.817 26.286 26.342 26.286 14.467 0 26.238-11.793 26.238-26.286 0-14.494-11.771-26.286-26.238-26.286zm358.634 0c-14.773 0-26.343 11.542-26.343 26.28 0 14.49 11.817 26.281 26.343 26.281 4.263 0 8.297-.966 11.996-2.87.044-.73.044-1.787.044-2.813V42.315c-3.009 3.531-7.416 5.606-12.04 5.606-8.729 0-15.83-7.067-15.83-15.749 0-8.686 7.101-15.753 15.83-15.753 4.637 0 9.044 2.097 12.04 5.663V8.836c-3.759-1.93-7.917-2.944-12.04-2.944zm-429.696-.53c-4.234 0-8.392.987-12.043 2.86v13.371c3.01-3.554 7.417-5.64 12.043-5.64 8.73 0 15.832 7.105 15.832 15.841 0 8.733-7.103 15.84-15.832 15.84-4.638 0-9.044-2.108-12.043-5.699v13.326c3.762 1.94 7.92 2.965 12.043 2.965 14.526 0 26.344-11.859 26.344-26.432 0-14.822-11.572-26.431-26.344-26.431zM364.248 9.91l-5.52 15.222 10.648 29.41 5.52-15.32L364.249 9.91zm-15.075 0l-10.648 29.312 5.523 15.32 10.647-29.41-5.522-15.222zm177.33 1.15v42.224c6.414-4.695 10.512-12.881 10.512-21.112 0-8.235-4.098-16.42-10.512-21.113zm-461.15-.5c-6.41 4.72-10.51 12.952-10.51 21.234 0 8.278 4.098 16.51 10.51 21.233zm362.88 27.07l-8.905 5.896c.99 2.1 2.467 4.362 3.887 5.959l8.971-5.886c-1.669-1.53-3.128-3.73-3.953-5.97zm363.584-.553l-8.905 5.9c.993 2.1 2.47 4.368 3.888 5.96l8.97-5.886c-1.67-1.53-3.127-3.731-3.953-5.974zM19.606 2.2c7.845 0 14.891 4.586 17.948 11.68l.4.922-3.323 1.42-.406-.917c-2.565-5.812-8.167-9.419-14.62-9.419-8.914 0-15.897 6.892-15.897 15.693 0 8.806 6.983 15.698 15.898 15.698 2.884 0 5.32 2.423 5.32 5.29 0 2.866-2.436 5.288-5.32 5.288-2.205 0-4.142-1.273-4.933-3.245l-.345-.86 3.255-1.621.43.965c.292.652.919 1.076 1.593 1.076a1.59 1.59 0 0 0 1.61-1.603 1.59 1.59 0 0 0-1.61-1.604C8.794 40.963 0 32.267 0 21.579 0 10.895 8.794 2.2 19.606 2.2zm132.536 14.302c8.615 0 15.625 7.033 15.625 15.678 0 8.641-7.01 15.675-15.625 15.675-8.673 0-15.728-7.034-15.728-15.675 0-8.645 7.055-15.678 15.728-15.678zm70.958 0c8.615 0 15.624 7.033 15.624 15.678 0 8.641-7.009 15.675-15.624 15.675-8.674 0-15.73-7.034-15.73-15.675 0-8.645 7.056-15.678 15.73-15.678zM745.678 1.65c7.846 0 14.892 4.586 17.949 11.678l.4.923-3.324 1.421-.405-.917c-2.566-5.814-8.168-9.419-14.62-9.419-8.915 0-15.897 6.892-15.897 15.693 0 8.806 6.982 15.698 15.897 15.698 2.884 0 5.32 2.423 5.32 5.29 0 2.866-2.436 5.288-5.32 5.288-2.205 0-4.141-1.273-4.932-3.246l-.346-.859 3.255-1.621.43.964c.292.653.92 1.076 1.593 1.076a1.59 1.59 0 0 0 1.61-1.603 1.59 1.59 0 0 0-1.61-1.603c-10.81 0-19.605-8.698-19.605-19.384 0-10.684 8.794-19.379 19.605-19.379zm-234.9 18.46c-6.698 0-12.144 5.41-12.144 12.062 0 6.65 5.446 12.058 12.143 12.058 6.75 0 12.04-5.298 12.04-12.058 0-6.764-5.29-12.062-12.04-12.062zm-358.636.065c-6.654 0-12.067 5.384-12.067 12.005 0 6.618 5.413 12.001 12.067 12.001 6.707 0 11.962-5.273 11.962-12 0-6.733-5.255-12.006-11.962-12.006zm70.958 0c-6.653 0-12.066 5.384-12.066 12.005 0 6.618 5.413 12.001 12.066 12.001 6.709 0 11.962-5.273 11.962-12 0-6.733-5.253-12.006-11.962-12.006zm-142.019-.51c-6.754 0-12.043 5.326-12.043 12.13 0 6.8 5.29 12.126 12.043 12.126 6.696 0 12.144-5.44 12.144-12.127 0-6.691-5.448-12.13-12.144-12.13zm369.664 3.186l-19.338 12.706c.692 2.44 2.083 4.587 3.871 5.962l19.382-12.737c-.57-2.187-2.038-4.408-3.915-5.93zm363.584-.549L794.99 35.01c.697 2.449 2.088 4.59 3.873 5.96l19.38-12.736c-.569-2.184-2.035-4.408-3.914-5.93zM443.074 5.892c-14.749 0-26.301 11.547-26.301 26.286 0 2.605.403 5.236 1.201 7.836l9.337-6.247c-.042-.536-.042-1.03-.042-1.589 0-8.688 7.09-15.755 15.805-15.755 2.646 0 5.228.681 7.679 2.024l9.43-6.161c-4.828-4.126-10.88-6.394-17.11-6.394zm363.584-.55c-14.748 0-26.299 11.547-26.299 26.288 0 2.6.403 5.235 1.2 7.833l9.336-6.244c-.043-.537-.043-1.03-.043-1.59 0-8.686 7.09-15.755 15.806-15.755 2.646 0 5.228.68 7.678 2.023l9.433-6.16c-4.829-4.127-10.88-6.395-17.111-6.395zM443.074 20.115c-6.406 0-11.665 4.965-12.097 11.23l16.18-10.532c-1.252-.458-2.649-.698-4.083-.698zm363.584-.549c-6.404 0-11.663 4.965-12.096 11.23l16.18-10.532c-1.252-.458-2.647-.698-4.084-.698zm-343.815-4.604l-8.932 5.831c1.615 1.588 3.102 3.855 3.9 5.948l8.943-5.84c-.711-1.665-2.155-4.07-3.911-5.939zm363.585-.549l-8.933 5.831c1.614 1.59 3.1 3.855 3.898 5.948l8.945-5.84c-.71-1.666-2.155-4.076-3.91-5.939zm117.854-8.988c-2.2 0-4.487.37-6.637 1.073v11.916a10.248 10.248 0 0 1 6.637-2.444c2.893 0 5.676 1.246 7.612 3.374 1.193-3.959 3.387-7.503 5.248-9.529-3.574-2.833-8.12-4.39-12.86-4.39zm-355.886 0c-2.198 0-4.486.37-6.638 1.073v11.916a10.252 10.252 0 0 1 6.638-2.444 10.34 10.34 0 0 1 7.612 3.374c1.191-3.963 3.387-7.507 5.247-9.529-3.572-2.833-8.118-4.39-12.859-4.39z"></path>
</svg>