<svg xmlns="http://www.w3.org/2000/svg" width="40" height="40" viewBox="0 0 40 40"><path fill="currentColor" d="M2 25.124l.55.55 3.029 3.029.55.55.55-.55a3.492 3.492 0 0 1 4.956 0 3.492 3.492 0 0 1 0 4.955l-.55.55.55.551 3.028 3.029.55.55.551-.55 22.023-22.024.551-.55-.55-.55-3.029-3.029-.55-.55-.55.55a3.492 3.492 0 0 1-4.956 0 3.492 3.492 0 0 1 0-4.955l.55-.55-.55-.551-3.028-3.028-.55-.551-.551.55L2.55 24.575l-.551.55zm2.202 0l14.04-14.04 11.012 11.012-14.04 14.04-1.987-1.987c1.442-1.977 1.292-4.765-.49-6.547-1.783-1.782-4.58-1.942-6.556-.5l-1.979-1.978zm15.141-15.14l5.781-5.782 1.979 1.979c-1.443 1.977-1.284 4.773.499 6.555 1.782 1.783 4.57 1.933 6.547.49l1.987 1.988-5.781 5.78-11.012-11.01z"></path></svg>